<svg width="200" height="200" viewBox="0 0 200 200" fill="none" xmlns="http://www.w3.org/2000/svg">
<path d="M0 100V200H100H200V100V-4.76837e-06H100H0V100ZM186.339 60C191.652 63.0804 191.518 72.2768 186.161 75C184.063 76.0714 180 76.2054 178.214 75.2679C176.83 74.5536 174.911 72.5446 174.152 71.1161C173.438 69.7321 173.527 64.9107 174.286 63.4821C175.089 61.9196 177.143 60 178.571 59.4196C180.714 58.5714 184.375 58.8393 186.339 60ZM47.6786 84.4196C51.1161 85.2679 56.7411 88.1696 59.375 90.5357L61.7857 92.7232L57.1875 97.6786C54.5982 100.446 52.4554 102.679 52.3214 102.679C52.2321 102.679 51.3393 101.964 50.3125 101.116C49.1518 100.089 47.3214 99.1518 45.4018 98.5714C37.8571 96.2946 30.5804 99.1964 27.3661 105.714C26.25 107.946 26.1161 108.75 26.1161 112.5C26.1161 115.893 26.2946 117.143 27.0982 118.839C28.3482 121.607 31.2946 124.732 33.7054 125.893C39.1964 128.571 46.5625 127.545 50.8036 123.527L52.2321 122.143L57.1875 127.009L62.0982 131.92L59.7321 134.152C56.875 136.83 52.2321 139.375 48.2143 140.446C44.2857 141.518 36.1161 141.518 32.1429 140.446C23.9732 138.259 16.875 132.545 13.4821 125.446C12.5 123.348 11.4732 120.58 11.2054 119.286C10.4911 115.848 10.5804 108.259 11.3839 105.134C14.1071 94.3304 23.75 85.7589 35.2679 83.9286C38.1696 83.4375 44.6875 83.7054 47.6786 84.4196ZM138.884 85.2232C140.268 85.8036 142.411 87.0089 143.705 87.9911C144.955 88.9286 146.116 89.7321 146.205 89.7321C146.339 89.7321 146.429 88.6161 146.429 87.2768V84.8214H153.795H161.161V112.5V140.179H153.795H146.429V137.679V135.179L145.446 135.893C140.313 139.643 137.054 140.982 132.188 141.384C119.286 142.366 108.214 134.196 104.643 120.982C103.438 116.607 103.527 108.393 104.821 103.884C107.098 95.8482 111.473 90.2679 118.348 86.6071C122.277 84.5536 125.357 83.9286 131.25 84.1071C135.223 84.1964 136.92 84.4643 138.884 85.2232ZM189.732 112.5V140.179H182.143H174.554V112.5V84.8214H182.143H189.732V112.5ZM88.0357 122.768C91.8304 123.839 94.3304 127.5 94.3304 131.92C94.3304 139.42 87.3661 143.705 80.7589 140.268C78.8393 139.286 78.125 138.571 77.1429 136.652C73.0357 128.839 79.6429 120.446 88.0357 122.768Z" fill="black"/>
<path d="M129.018 98.1697C122.723 100.223 119.107 105.446 119.107 112.5C119.107 119.866 122.768 125.134 129.196 127.009C134.107 128.438 139.509 126.964 142.991 123.259C145.803 120.268 146.652 117.723 146.652 112.277C146.652 108.304 146.518 107.545 145.402 105.268C143.08 100.536 139.241 98.125 133.705 97.9465C131.741 97.8572 129.643 97.9465 129.018 98.1697Z" fill="black"/>
</svg>
