<svg width="272" height="200" viewBox="0 0 272 200" fill="none" xmlns="http://www.w3.org/2000/svg">
<path d="M185.668 5.40109C182.037 12.9863 181.542 27.1674 184.678 38.0506C186.493 43.9868 189.464 48.6039 195.9 55.0349C200.686 59.8169 204.647 64.5989 204.647 65.4234C204.647 66.2478 203.492 69.5458 202.172 72.8437L199.861 78.6151L192.765 74.9873C188.804 73.0086 178.241 64.2691 169.164 55.5296C160.087 46.6252 149.69 37.391 146.059 34.7526C137.147 28.3217 135.331 25.8482 135.331 20.5716C135.331 17.6034 136.982 14.6353 140.447 11.6672C143.253 9.3586 145.068 6.88516 144.408 6.22557C142.098 3.91702 124.274 5.56599 114.701 9.19371C106.285 12.3267 101.994 12.8214 85.8198 12.6565C75.4224 12.4916 63.2096 13.1512 58.7536 14.1406C24.5907 21.7258 0 54.5402 0 92.4664C0.165038 121.158 11.0576 147.212 31.5223 167.494C38.2888 174.255 48.0261 182.335 52.9772 185.303C85.9849 204.761 130.05 204.926 159.922 185.633C169.164 179.697 170.979 179.037 175.601 180.521C189.959 184.973 208.773 183.819 214.385 178.212C216.86 175.739 216.695 175.244 213.229 172.441C211.084 170.627 204.977 167.659 199.531 165.68C194.25 163.702 189.794 161.888 189.794 161.558C189.794 161.063 194.085 155.457 199.366 148.861C204.812 142.43 210.589 134.35 212.569 131.217C218.345 121.488 226.267 95.4345 227.257 82.9024C228.248 69.8756 229.733 66.9074 235.014 66.9074C241.121 66.9074 254.819 59.4871 260.43 53.0561C267.032 45.4709 270.332 37.5559 271.653 26.5078C272.973 15.13 270.662 13.8108 262.411 21.396C257.129 26.178 254.489 27.3323 248.712 27.3323C240.626 27.4972 230.558 30.7951 225.937 34.9175C222.306 38.2155 222.471 38.2155 219.501 30.96C218.015 27.0025 214.715 24.0344 208.773 20.5716C198.871 14.9651 195.735 11.832 193.59 5.23619C191.444 -1.85435 188.969 -1.68946 185.668 5.40109ZM59.0836 75.9767C75.0923 81.0885 93.7416 92.9611 105.129 105.328C109.42 110.11 118.497 121.983 125.264 131.712C139.622 152.654 148.039 162.382 158.767 170.792C166.028 176.728 166.358 177.058 162.728 178.048C158.107 179.202 141.768 176.564 136.817 173.925C134.836 172.936 127.244 167.659 119.983 162.218C105.789 151.829 95.8871 146.058 91.5962 146.058C88.4604 146.058 88.2954 153.643 91.5962 159.249C95.227 165.515 94.5668 168.978 89.6157 170.957C74.5972 176.564 43.405 153.478 29.7069 126.435C20.1346 107.307 13.6982 77.7906 18.3192 73.998C24.4256 69.0511 39.7742 69.8756 59.0836 75.9767ZM157.776 81.0885C167.184 85.5407 181.542 104.339 181.542 112.089C181.542 115.552 171.475 118.52 166.358 116.541C159.592 114.068 154.971 106.812 155.466 99.5569C155.796 92.3015 154.146 89.9929 146.719 88.5088C140.447 87.1897 139.127 84.8811 142.758 81.0885C146.224 77.7906 150.68 77.7906 157.776 81.0885ZM149.69 95.9292C151.01 99.5569 146.719 102.03 143.748 99.2271C142.593 97.9079 142.098 96.0941 142.593 95.1047C144.243 92.4664 148.534 92.9611 149.69 95.9292Z" fill="black"/>
</svg>
