<svg width="264" height="200" viewBox="0 0 264 200" fill="none" xmlns="http://www.w3.org/2000/svg">
<path d="M125.082 9.53306C106.751 37.0295 0.266283 198.455 0.00882558 199.176C-0.300123 199.949 7.06316 200 92.1785 200C154.638 200 184.657 199.846 184.657 199.485C184.657 199.176 181.619 194.439 177.963 188.929L171.269 178.888L104.845 178.786L38.4729 178.631L84.9183 108.242C110.458 69.5206 131.518 37.8534 131.673 37.8019C131.827 37.8019 155.976 74.3093 185.378 118.901L238.826 200H251.184C262.615 200 263.542 199.949 263.233 199.125C262.873 198.301 132.96 0.93398 132.136 0.00713384C131.878 -0.198832 128.737 4.07496 125.082 9.53306Z" fill="black"/>
<path d="M228.373 82.6508C222.143 92.0222 216.891 100.003 216.736 100.415C216.53 101.033 219.929 101.136 240.01 101.136C259.835 101.136 263.491 101.033 263.336 100.415C263.13 99.3855 240.577 65.6586 240.165 65.6071C239.907 65.6071 234.655 73.2793 228.373 82.6508Z" fill="black"/>
<path d="M137.8 104.072C137.852 104.329 151.806 125.904 168.901 152.113L199.899 199.743L212.102 199.897C218.796 199.949 224.306 199.846 224.306 199.588C224.306 199.331 210.3 177.756 193.205 151.547L162.156 103.969L149.952 103.814C143.258 103.763 137.8 103.866 137.8 104.072Z" fill="black"/>
<path d="M99.6964 138.725C93.4144 148.097 88.3683 155.923 88.5227 156.026C88.6257 156.129 98.9755 156.181 111.436 156.129L134.196 155.975L123.074 139.24C116.946 130.023 111.745 122.299 111.539 122.042C111.282 121.836 105.978 129.302 99.6964 138.725Z" fill="black"/>
</svg>
