<svg width="210" height="200" viewBox="0 0 210 200" fill="none" xmlns="http://www.w3.org/2000/svg">
<path d="M146.023 63.5238C111.166 98.381 83.7111 126.374 84.7878 125.567C85.8644 124.759 102.149 112.916 120.991 99.0539C139.698 85.3263 155.579 74.0213 156.117 74.0213C158.405 74.0213 162.577 79.0009 164.058 83.173C170.652 103.361 164.865 126.913 149.388 142.524C135.122 156.925 116.415 162.443 95.689 158.271L84.384 155.983L73.2136 160.962C67.0227 163.654 62.3123 166.48 62.716 167.153C64.4656 169.979 82.4998 177.651 91.9207 179.535C104.841 182.227 111.839 182.227 124.894 179.535C140.64 176.305 153.964 168.768 165.807 156.252C185.053 136.064 191.916 112.512 186.533 84.5188C180.342 52.0842 182.899 39.7024 200.934 13.0549C205.779 5.92193 209.681 0.000248596 209.547 0.000248596C209.412 0.000248596 180.746 28.532 146.023 63.5238Z" fill="black"/>
<path d="M91.5169 22.3411C54.641 30.147 27.7243 63.3892 27.7243 100.938C27.7243 111.57 28.3972 116.146 32.1655 128.259C39.2985 151.542 37.2797 157.732 13.9967 183.707C6.32544 192.32 0 199.588 0 199.992C0 200.799 62.8506 144.274 64.0619 142.524C64.4656 141.851 62.9852 139.025 60.6973 136.334C42.7976 113.858 45.3547 81.0196 66.7535 59.6208C82.0961 44.2783 108.34 37.8183 126.105 45.2204C130.008 46.7008 131.219 46.5662 138.218 43.2016C142.524 41.3174 148.177 38.6258 150.734 37.5491L155.31 35.3958L151.676 33.1078C145.485 28.9357 129.335 23.0141 120.722 21.5336C109.82 19.784 102.284 19.9186 91.5169 22.3411Z" fill="black"/>
</svg>
