<svg width="204" height="200" viewBox="0 0 204 200" fill="none" xmlns="http://www.w3.org/2000/svg">
<path d="M75.8744 2.92544C69.9519 5.37611 51.3677 25.5941 17.4667 66.6428C1.12894 86.2482 -2.34284 92.7833 1.33316 96.4593C4.19228 99.3184 78.1208 71.1357 89.353 62.9668C97.9304 56.6359 103.649 47.8544 103.649 40.7066C103.649 36.4179 86.6981 2.92544 83.6348 1.08744C82.8179 0.678996 79.3461 1.49589 75.8744 2.92544Z" fill="black"/>
<path d="M97.5217 1.29164C97.5217 1.90431 101.81 10.2774 107.324 19.8759C124.683 50.7135 136.937 58.8824 180.844 68.2766C197.387 71.9526 201.267 71.7484 198.816 67.4597C197.387 65.2133 113.655 6.19298 106.303 2.31275C101.402 -0.342139 97.5217 -0.750584 97.5217 1.29164Z" fill="black"/>
<path d="M143.676 77.6713C131.627 87.0655 130.197 94.0091 130.197 146.086C130.197 188.156 130.606 193.67 133.465 194.691C135.303 195.508 138.979 194.691 141.429 193.057C147.148 189.381 197.386 111.776 201.675 100.34C206.168 87.8824 203.717 85.4318 182.07 80.122C152.049 72.77 150.211 72.5658 143.676 77.6713Z" fill="black"/>
<path d="M43.8114 96.255C0.924697 112.389 -1.11753 114.022 4.19226 126.888C6.64292 132.607 14.8118 139.959 40.5438 159.156C91.8037 197.958 95.0712 200 103.853 200C117.536 200 118.353 196.937 117.536 146.085C116.923 98.2972 116.515 97.0719 103.444 87.065C92.8248 79.3045 85.0643 80.5299 43.8114 96.255Z" fill="black"/>
</svg>
