<svg width="200" height="200" viewBox="0 0 200 200" fill="none" xmlns="http://www.w3.org/2000/svg">
<path d="M198.841 143.393C198.321 141.434 197.481 139.576 196.353 137.892C196.594 137.006 196.779 136.105 196.902 135.195C197.703 129.419 195.7 124.132 191.927 120.041C189.883 117.807 187.692 116.331 185.372 115.425C186.895 108.909 187.666 102.24 187.669 95.5477C187.669 92.4909 187.496 89.4968 187.206 86.5473C187.056 85.0745 186.873 83.6052 186.658 82.1403C185.994 77.8174 185.009 73.55 183.71 69.3737C182.858 66.6296 181.873 63.9287 180.758 61.2808C179.087 57.3591 177.136 53.5628 174.92 49.9213C173.467 47.4984 171.883 45.1556 170.178 42.903C169.342 41.7656 168.471 40.6549 167.565 39.5727C164.88 36.3101 161.962 33.2462 158.835 30.4051C157.796 29.4499 156.728 28.5275 155.631 27.6392C154.551 26.7388 153.448 25.8674 152.322 25.0259C150.056 23.3392 147.714 21.7568 145.304 20.2836C131.985 12.1946 116.367 7.55566 99.6734 7.55566C51.0694 7.55566 11.6775 46.9495 11.6775 95.5506C11.6756 102.327 12.4603 109.081 14.0163 115.676C11.9288 116.582 9.92825 117.995 8.07269 120.039C4.30069 124.128 2.29727 129.396 3.09845 135.172C3.22022 136.089 3.40287 136.997 3.64641 137.89C2.51963 139.575 1.6794 141.434 1.15977 143.393C5.21266e-05 147.801 0.381794 151.776 1.85561 155.259C0.253258 159.811 0.653363 164.658 2.7399 168.873C4.2572 171.951 6.42878 174.332 9.10581 176.461C12.2883 178.991 16.2719 181.14 21.077 183.202C26.8099 185.648 33.8079 187.945 36.9904 188.787C45.2109 190.916 53.0931 192.265 61.0817 192.33C72.4634 192.436 82.265 189.76 89.2823 182.911C92.7298 183.333 96.2 183.544 99.6734 183.543C103.343 183.535 107.009 183.304 110.65 182.852C117.651 189.744 127.49 192.444 138.914 192.336C146.901 192.272 154.783 190.923 162.983 188.792C166.186 187.95 173.181 185.652 178.917 183.207C183.722 181.142 187.706 178.993 190.91 176.466C193.566 174.337 195.736 171.957 197.254 168.879C199.362 164.663 199.741 159.816 198.161 155.264C199.62 151.781 200 147.797 198.841 143.393ZM190.685 154.964C192.299 158.029 192.403 161.491 190.978 164.716C188.817 169.604 183.45 173.454 173.025 177.587C166.542 180.158 160.606 181.802 160.554 181.817C151.98 184.04 144.225 185.17 137.512 185.17C126.396 185.17 118.125 182.103 112.879 176.045C104.008 177.556 94.9503 177.608 86.0631 176.198C80.8105 182.155 72.5861 185.17 61.5639 185.17C54.8501 185.17 47.0964 184.04 38.5212 181.817C38.469 181.802 32.5351 180.158 26.0503 177.587C15.6264 173.454 10.2568 169.607 8.09685 164.716C6.67233 161.491 6.77573 158.029 8.39065 154.964C8.53948 154.679 8.69991 154.402 8.87097 154.133C7.90309 152.679 7.2539 151.037 6.96606 149.315C6.67823 147.592 6.75829 145.828 7.20096 144.139C7.84268 141.701 9.16766 139.673 10.9672 138.217C10.1003 136.793 9.53151 135.207 9.29523 133.557C8.77722 129.967 9.96884 126.384 12.6488 123.461C14.7363 121.187 17.6868 119.936 20.9533 119.936H21.0403C18.5774 112.041 17.3287 103.818 17.3369 95.5477C17.3369 50.4432 53.903 13.8742 99.0143 13.8742C144.125 13.8742 180.691 50.4393 180.691 95.5477C180.698 103.84 179.44 112.085 176.961 119.998C177.355 119.959 177.742 119.94 178.122 119.939C181.388 119.939 184.34 121.19 186.425 123.464C189.105 126.384 190.298 129.97 189.779 133.56C189.543 135.21 188.974 136.795 188.108 138.22C189.908 139.676 191.234 141.704 191.874 144.142C192.317 145.831 192.397 147.595 192.109 149.318C191.821 151.04 191.172 152.682 190.204 154.136C190.375 154.402 190.538 154.679 190.685 154.964Z" fill="white"/>
<path d="M190.204 154.136C191.172 152.682 191.822 151.04 192.11 149.318C192.397 147.595 192.317 145.831 191.874 144.142C191.232 141.704 189.907 139.676 188.108 138.22C188.975 136.795 189.543 135.21 189.779 133.559C190.298 129.97 189.106 126.386 186.425 123.464C184.34 121.19 181.388 119.938 178.122 119.938C177.742 119.938 177.355 119.959 176.961 119.997C179.437 112.085 180.692 103.841 180.684 95.5494C180.684 50.444 144.118 13.876 99.0113 13.876C53.9039 13.876 17.334 50.4401 17.334 95.5494C17.3258 103.819 18.5745 112.043 21.0373 119.937H20.9504C17.6838 119.937 14.7333 121.188 12.6467 123.462C9.96681 126.382 8.77423 129.969 9.29321 133.557C9.52968 135.208 10.0984 136.794 10.9651 138.219C9.16564 139.674 7.83969 141.702 7.19797 144.14C6.7556 145.83 6.67587 147.594 6.96403 149.317C7.25219 151.04 7.90172 152.682 8.86991 154.136C8.69788 154.404 8.53938 154.682 8.38959 154.967C6.77564 158.031 6.67127 161.494 8.09676 164.719C10.2577 169.606 15.6253 173.457 26.0502 177.59C32.5321 180.161 38.4689 181.805 38.5211 181.819C47.0953 184.043 54.85 185.173 61.5629 185.173C72.5861 185.173 80.8104 182.158 86.063 176.2C94.9502 177.61 104.008 177.559 112.879 176.048C118.124 182.105 126.396 185.173 137.512 185.173C144.225 185.173 151.98 184.043 160.553 181.819C160.606 181.805 166.54 180.161 173.025 177.59C183.45 173.457 188.818 169.606 190.978 164.719C192.403 161.494 192.299 158.031 190.685 154.967C190.538 154.68 190.375 154.402 190.204 154.136ZM82.3045 166.874C81.8523 167.665 81.3681 168.437 80.8529 169.188C79.4951 171.176 77.7091 172.695 75.6361 173.824C71.6737 175.985 66.6579 176.74 61.5629 176.74C53.5134 176.74 45.262 174.856 40.6376 173.657C40.4095 173.598 12.2882 165.655 15.8485 158.894C16.4477 157.756 17.4335 157.302 18.6754 157.302C23.6883 157.302 32.8162 164.767 36.738 164.767C37.6156 164.767 38.2341 164.394 38.4863 163.483C40.1583 157.487 13.0758 154.967 15.3566 146.284C15.7587 144.748 16.8507 144.123 18.3854 144.123C25.0133 144.123 39.8886 155.779 42.9996 155.779C43.2383 155.779 43.4094 155.708 43.5021 155.561C43.5157 155.539 43.5292 155.518 43.5418 155.495C45.002 153.083 44.1641 151.33 34.1606 145.203L33.1999 144.618C22.1913 137.956 14.4646 133.946 18.858 129.162C19.3644 128.61 20.0815 128.366 20.9523 128.366C21.9844 128.366 23.2331 128.711 24.6102 129.291C30.4243 131.742 38.4825 138.429 41.8486 141.345C42.3781 141.805 42.9042 142.269 43.4267 142.738C43.4267 142.738 47.6887 147.17 50.2653 147.17C50.8586 147.17 51.3622 146.936 51.7033 146.358C53.5308 143.277 34.7298 129.03 33.6696 123.151C32.9506 119.168 34.1741 117.15 36.4356 117.15C37.5112 117.15 38.8226 117.608 40.2723 118.527C44.7662 121.379 53.4429 136.29 56.6196 142.09C57.6846 144.034 59.5024 144.855 61.1406 144.855C64.3907 144.855 66.9314 141.624 61.4382 137.519C53.182 131.341 56.0793 121.244 60.0195 120.623C60.1876 120.596 60.3577 120.582 60.5269 120.582C64.1104 120.582 65.6905 126.757 65.6905 126.757C65.6905 126.757 70.3236 138.391 78.2822 146.343C85.5034 153.562 86.5124 159.485 82.3045 166.874ZM108.04 168.237L107.627 168.286L106.924 168.367C106.553 168.405 106.182 168.442 105.81 168.476L105.448 168.509L105.116 168.537L104.647 168.574L104.128 168.612L103.61 168.646L103.495 168.654C103.359 168.661 103.224 168.67 103.087 168.677L102.914 168.686C102.753 168.695 102.593 168.703 102.431 168.71L101.869 168.734L101.36 168.751L101.02 168.761H100.847C100.74 168.761 100.635 168.767 100.529 168.768H100.36C100.254 168.768 100.149 168.768 100.042 168.772L99.6095 168.778H99.0055C98.531 168.778 98.0574 168.773 97.5858 168.764L97.2031 168.755C97.0939 168.755 96.9847 168.75 96.8774 168.746L96.4715 168.735L95.968 168.715L95.5138 168.695L95.3968 168.69L94.9648 168.668C94.844 168.661 94.7252 168.655 94.6053 168.647L94.326 168.63C93.975 168.608 93.6242 168.584 93.2736 168.557L92.9063 168.527C92.7517 168.515 92.5971 168.501 92.4434 168.487C92.2627 168.472 92.082 168.454 91.9012 168.437C91.5985 168.409 91.296 168.378 90.9937 168.345H90.9792C95.3959 158.492 93.1624 149.29 84.2374 140.373C78.3837 134.527 74.4899 125.895 73.682 123.999C72.0468 118.389 67.7191 112.153 60.5317 112.153C59.9238 112.153 59.3169 112.201 58.7167 112.296C55.5681 112.792 52.8157 114.604 50.8519 117.331C48.7296 114.692 46.6672 112.594 44.802 111.409C41.9897 109.626 39.1831 108.721 36.4491 108.721C33.0366 108.721 29.9865 110.122 27.8604 112.664L27.8062 112.729C27.7657 112.562 27.727 112.394 27.6874 112.226L27.6825 112.204C27.2779 110.474 26.9381 108.729 26.6639 106.974C26.6639 106.962 26.6639 106.95 26.6581 106.939C26.6369 106.806 26.6175 106.673 26.5972 106.541C26.5373 106.148 26.4813 105.755 26.43 105.362C26.4068 105.183 26.3817 105.004 26.3595 104.825L26.2938 104.289C26.2725 104.11 26.2551 103.948 26.2358 103.778L26.23 103.735C26.1527 103.039 26.085 102.344 26.027 101.646L26.0058 101.378L25.972 100.922C25.9623 100.797 25.9526 100.672 25.9459 100.546C25.9459 100.516 25.941 100.487 25.9401 100.459C25.9155 100.109 25.8945 99.7582 25.8772 99.4075C25.8676 99.2248 25.8579 99.0431 25.8502 98.8595L25.8309 98.3801L25.826 98.2352L25.8106 97.7935L25.8009 97.4176C25.8009 97.2678 25.7932 97.118 25.7912 96.9682C25.7883 96.8184 25.7845 96.6541 25.7835 96.4956C25.7816 96.3371 25.7835 96.1805 25.7787 96.023C25.7748 95.8645 25.7787 95.707 25.7787 95.5494C25.7787 55.1012 58.5698 22.3091 99.0229 22.3091C139.474 22.3091 172.265 55.1003 172.265 95.5494V96.4956C172.265 96.6531 172.26 96.8116 172.257 96.9682C172.257 97.0986 172.252 97.2272 172.248 97.3596C172.248 97.4756 172.243 97.5925 172.239 97.7046C172.239 97.8525 172.23 98.0003 172.226 98.1482V98.1598L172.205 98.673C172.199 98.8228 172.193 98.9735 172.185 99.1233L172.18 99.2296L172.154 99.709C172.097 100.736 172.019 101.762 171.921 102.786V102.799C171.905 102.967 171.888 103.135 171.87 103.303L171.826 103.7L171.74 104.477L171.691 104.871L171.63 105.334C171.608 105.502 171.586 105.671 171.561 105.838C171.536 106.027 171.508 106.214 171.479 106.402L171.413 106.845L171.334 107.348C171.306 107.515 171.278 107.681 171.247 107.847C171.215 108.015 171.19 108.181 171.161 108.347C171.103 108.679 171.042 109.012 170.978 109.343C170.88 109.839 170.781 110.334 170.678 110.829L170.572 111.319C170.537 111.482 170.5 111.646 170.463 111.81C168.401 109.806 165.671 108.715 162.661 108.715C159.929 108.715 157.119 109.619 154.308 111.402C152.443 112.587 150.381 114.686 148.258 117.324C146.291 114.597 143.539 112.785 140.392 112.289C139.792 112.194 139.185 112.146 138.577 112.146C131.388 112.146 127.063 118.382 125.427 123.993C124.615 125.888 120.72 134.52 114.862 140.375C105.943 149.264 103.693 158.425 108.04 168.237ZM183.655 148.513L183.626 148.599C183.552 148.793 183.467 148.982 183.371 149.166C183.299 149.302 183.221 149.433 183.136 149.561C182.974 149.801 182.797 150.031 182.605 150.248C182.561 150.298 182.518 150.348 182.468 150.398C182.398 150.472 182.328 150.545 182.255 150.617C180.954 151.906 178.971 153.037 176.729 154.074C176.475 154.189 176.217 154.304 175.957 154.42L175.698 154.535C175.525 154.611 175.352 154.687 175.17 154.761C174.997 154.836 174.818 154.912 174.638 154.985L174.099 155.208C172.837 155.727 171.545 156.221 170.285 156.709L169.746 156.919L169.213 157.128C168.859 157.266 168.509 157.404 168.165 157.542L167.651 157.749L167.147 157.955L166.9 158.059C166.734 158.128 166.573 158.197 166.411 158.265C162.703 159.857 160.035 161.476 160.595 163.484C160.611 163.541 160.628 163.595 160.648 163.648C160.698 163.797 160.767 163.937 160.853 164.07C160.903 164.148 160.961 164.222 161.026 164.29C161.685 164.975 162.884 164.867 164.396 164.323C164.609 164.245 164.821 164.163 165.03 164.078L165.162 164.024C165.508 163.877 165.874 163.713 166.248 163.535C166.342 163.491 166.437 163.448 166.531 163.399C168.381 162.494 170.477 161.277 172.557 160.168C173.389 159.719 174.233 159.292 175.087 158.888C177.057 157.961 178.908 157.304 180.397 157.304C181.096 157.304 181.712 157.447 182.226 157.775L182.312 157.832C182.635 158.059 182.906 158.351 183.108 158.69C183.147 158.754 183.186 158.823 183.224 158.894C183.959 160.29 183.343 161.736 181.902 163.154C180.52 164.515 178.368 165.85 175.923 167.085C175.741 167.177 175.56 167.269 175.375 167.359C168.098 170.932 158.568 173.624 158.436 173.658C155.896 174.316 152.264 175.18 148.172 175.826L147.567 175.921L147.467 175.936C147.009 176.005 146.55 176.07 146.09 176.13C145.623 176.193 145.152 176.25 144.677 176.303L144.59 176.313C142.87 176.511 141.143 176.642 139.412 176.705H139.387C138.761 176.727 138.136 176.739 137.509 176.739H136.787C135.833 176.726 134.879 176.683 133.928 176.609C133.905 176.609 133.881 176.609 133.859 176.603C133.165 176.548 132.472 176.473 131.782 176.38C131.551 176.349 131.321 176.315 131.091 176.277C130.857 176.239 130.624 176.2 130.391 176.16L130.073 176.1L130.048 176.095C129.713 176.031 129.379 175.961 129.047 175.883C128.854 175.84 128.662 175.797 128.471 175.745L128.356 175.716C128.261 175.693 128.17 175.668 128.076 175.643L128.025 175.629L127.727 175.542C127.619 175.512 127.511 175.479 127.402 175.448L127.365 175.437L127.083 175.351C126.977 175.318 126.871 175.283 126.765 175.249L126.506 175.162L126.316 175.096C126.132 175.031 125.95 174.964 125.769 174.895L125.597 174.827L125.455 174.771C125.18 174.661 124.908 174.546 124.638 174.425L124.459 174.338L124.43 174.325C124.366 174.295 124.303 174.265 124.239 174.239C124.115 174.179 123.991 174.117 123.868 174.054L123.83 174.036L123.653 173.942C123.337 173.777 123.027 173.601 122.724 173.414L122.558 173.312C122.474 173.26 122.392 173.208 122.31 173.153L122.094 173.01L121.861 172.85L121.722 172.75C121.575 172.646 121.431 172.538 121.29 172.427L121.064 172.254C120.975 172.181 120.886 172.108 120.798 172.033C120.723 171.972 120.651 171.909 120.578 171.845L120.572 171.84C120.494 171.771 120.418 171.703 120.341 171.632C120.266 171.564 120.191 171.494 120.117 171.423L120.109 171.415C120.031 171.341 119.956 171.267 119.881 171.19C119.807 171.115 119.731 171.04 119.658 170.962C119.586 170.886 119.511 170.808 119.44 170.728C119.368 170.648 119.303 170.576 119.235 170.498L119.213 170.471C119.147 170.396 119.082 170.319 119.018 170.241C118.88 170.076 118.746 169.907 118.616 169.734C118.486 169.56 118.358 169.382 118.234 169.202L118.115 169.024C117.956 168.792 117.802 168.558 117.652 168.32C117.54 168.149 117.431 167.977 117.324 167.802C117.256 167.693 117.19 167.583 117.124 167.474L117.097 167.43C117.034 167.324 116.973 167.219 116.913 167.114C116.878 167.057 116.845 167 116.814 166.941C116.782 166.881 116.745 166.82 116.712 166.759L116.656 166.664L116.623 166.602C116.558 166.486 116.494 166.369 116.432 166.251C116.403 166.199 116.375 166.147 116.345 166.096L116.259 165.929L116.172 165.764C115.955 165.329 115.749 164.888 115.556 164.442L115.487 164.279C115.443 164.169 115.401 164.061 115.357 163.954C115.335 163.902 115.314 163.85 115.296 163.798C114.976 162.97 114.725 162.117 114.546 161.248C114.535 161.195 114.525 161.141 114.516 161.09C114.466 160.832 114.425 160.572 114.393 160.311C114.385 160.26 114.38 160.209 114.374 160.158L114.357 160.001C114.336 159.796 114.32 159.59 114.31 159.384C114.31 159.332 114.305 159.28 114.303 159.23C114.299 159.127 114.296 159.025 114.295 158.923C114.241 154.793 116.331 150.823 120.799 146.357C128.757 138.406 133.39 126.771 133.39 126.771C133.39 126.771 133.515 126.283 133.774 125.58C133.81 125.483 133.847 125.382 133.89 125.277C134.041 124.884 134.211 124.497 134.399 124.12L134.437 124.048C134.597 123.727 134.773 123.414 134.963 123.109C135.007 123.039 135.05 122.969 135.099 122.899C135.241 122.689 135.391 122.484 135.548 122.286C135.634 122.179 135.728 122.072 135.822 121.969C135.86 121.928 135.896 121.888 135.936 121.849C136.397 121.373 136.924 120.984 137.52 120.777L137.595 120.752C137.646 120.736 137.696 120.72 137.747 120.706C137.806 120.69 137.865 120.677 137.926 120.664L137.954 120.658C138.079 120.633 138.207 120.617 138.336 120.608H138.346C138.413 120.608 138.481 120.601 138.549 120.601C138.635 120.601 138.715 120.601 138.799 120.61C138.886 120.618 138.972 120.628 139.059 120.641C139.777 120.755 140.459 121.182 141.046 121.841C141.27 122.093 141.471 122.363 141.647 122.649C141.763 122.835 141.872 123.031 141.975 123.238C142.017 123.324 142.056 123.403 142.095 123.488C142.196 123.706 142.286 123.929 142.366 124.156C142.554 124.687 142.696 125.234 142.79 125.791C142.871 126.279 142.919 126.772 142.935 127.266C142.943 127.53 142.943 127.797 142.935 128.067C142.883 129.322 142.626 130.56 142.174 131.732C142.134 131.839 142.088 131.947 142.045 132.056C141.956 132.274 141.859 132.488 141.753 132.698C141.675 132.858 141.592 133.018 141.504 133.178C141.446 133.284 141.385 133.39 141.324 133.497C141.168 133.761 141 134.024 140.819 134.286L140.71 134.443C140.283 135.038 139.807 135.597 139.288 136.113C138.775 136.626 138.227 137.1 137.646 137.533C137.064 137.964 136.518 138.442 136.013 138.961C134.561 140.485 134.222 141.83 134.549 142.85C134.601 143.01 134.67 143.166 134.753 143.313C134.851 143.481 134.967 143.635 135.098 143.777L135.149 143.83L135.201 143.882C135.254 143.932 135.309 143.981 135.368 144.03L135.426 144.076C135.566 144.184 135.715 144.281 135.87 144.366C135.916 144.39 135.956 144.414 136.007 144.438C136.176 144.52 136.349 144.59 136.526 144.647C136.576 144.664 136.625 144.678 136.675 144.694L136.738 144.71L136.825 144.733L136.899 144.752L136.981 144.769L137.061 144.785L137.137 144.798C137.193 144.808 137.251 144.817 137.309 144.824L137.364 144.833L137.465 144.843L137.527 144.849L137.628 144.856H137.688L137.794 144.862H138.129L138.224 144.856L138.335 144.849L138.469 144.837L138.595 144.822C138.624 144.822 138.653 144.814 138.682 144.809C139.068 144.753 139.447 144.65 139.809 144.503L139.963 144.439C140.224 144.326 140.473 144.19 140.709 144.032C140.93 143.887 141.139 143.724 141.334 143.546C141.381 143.504 141.426 143.46 141.471 143.417C141.493 143.396 141.514 143.375 141.535 143.352C141.578 143.309 141.621 143.266 141.664 143.219C141.973 142.879 142.241 142.504 142.461 142.101C144.352 138.662 146.335 135.273 148.406 131.94L148.69 131.484L148.977 131.029C149.12 130.798 149.265 130.571 149.409 130.345L149.554 130.119C150.035 129.365 150.524 128.616 151.022 127.873L151.317 127.432C151.908 126.556 152.498 125.703 153.082 124.893L153.373 124.492C154.009 123.615 154.671 122.758 155.358 121.921L155.631 121.594C155.676 121.54 155.718 121.486 155.767 121.434C155.857 121.327 155.947 121.224 156.035 121.123C156.079 121.072 156.121 121.022 156.168 120.972L156.427 120.68L156.557 120.538C156.687 120.397 156.815 120.263 156.94 120.135C157.027 120.048 157.108 119.962 157.191 119.88C157.681 119.379 158.221 118.931 158.804 118.541L158.939 118.454C159.069 118.367 159.203 118.286 159.34 118.212C161.625 116.915 163.516 116.82 164.605 117.909C165.264 118.568 165.63 119.661 165.609 121.182C165.609 121.249 165.609 121.317 165.605 121.386V121.461C165.605 121.53 165.599 121.6 165.593 121.67C165.593 121.757 165.583 121.843 165.575 121.93C165.566 122.016 165.561 122.082 165.552 122.159C165.552 122.181 165.548 122.203 165.545 122.226C165.539 122.293 165.53 122.361 165.52 122.43C165.52 122.45 165.52 122.471 165.513 122.493C165.502 122.584 165.489 122.675 165.473 122.766C165.462 122.853 165.448 122.934 165.432 123.019L165.407 123.163C165.382 123.3 165.35 123.436 165.311 123.569C165.236 123.819 165.144 124.064 165.037 124.302C164.888 124.628 164.722 124.946 164.54 125.256C164.44 125.428 164.337 125.597 164.229 125.764C164.119 125.937 164.003 126.112 163.883 126.289C163.578 126.726 163.261 127.154 162.931 127.572L162.781 127.763C162.243 128.433 161.688 129.089 161.116 129.729L160.936 129.932C160.692 130.204 160.445 130.477 160.192 130.752L160.001 130.959C159.875 131.097 159.742 131.235 159.615 131.374C159.488 131.512 159.356 131.653 159.222 131.793L158.825 132.211L158.422 132.633L158.016 133.054C157.744 133.336 157.47 133.618 157.195 133.901C153.276 137.92 149.147 141.926 147.75 144.423C147.656 144.586 147.572 144.753 147.496 144.925C147.297 145.379 147.214 145.767 147.271 146.081C147.289 146.185 147.326 146.284 147.379 146.374C147.457 146.511 147.552 146.636 147.664 146.748C147.715 146.799 147.769 146.845 147.826 146.887C148.114 147.092 148.461 147.198 148.815 147.188H148.925L149.038 147.179L149.151 147.167L149.245 147.153C149.257 147.151 149.271 147.149 149.283 147.146L149.369 147.129L149.392 147.124L149.487 147.104L149.521 147.095L149.622 147.068C149.655 147.059 149.702 147.046 149.742 147.032C149.913 146.981 150.079 146.92 150.242 146.851C150.328 146.816 150.412 146.778 150.495 146.738C150.539 146.718 150.582 146.698 150.623 146.677L150.752 146.613C151.062 146.453 151.363 146.278 151.657 146.09L151.785 146.003C151.829 145.976 151.872 145.948 151.914 145.917L152.043 145.831L152.111 145.784L152.297 145.653C152.47 145.534 152.631 145.412 152.794 145.287L152.809 145.275L153.069 145.074C153.424 144.794 153.76 144.512 154.065 144.246L154.268 144.068L154.287 144.051L154.393 143.957C154.642 143.733 154.865 143.524 155.049 143.352L155.125 143.278C155.192 143.215 155.253 143.156 155.308 143.106L155.416 142.999L155.455 142.961L155.466 142.95L155.579 142.837L155.65 142.763L155.659 142.756L155.693 142.725L155.735 142.686L155.749 142.674L155.785 142.641L155.982 142.468L156.092 142.369C156.151 142.318 156.208 142.266 156.265 142.213L156.396 142.096C156.42 142.077 156.444 142.055 156.468 142.034L156.606 141.913L156.809 141.734L156.917 141.641C157.338 141.275 157.849 140.834 158.436 140.336L158.677 140.132L159.074 139.799L159.481 139.459C160.013 139.018 160.585 138.549 161.19 138.063L161.587 137.744C161.925 137.474 162.272 137.2 162.624 136.924C162.766 136.812 162.91 136.701 163.057 136.591C164.248 135.665 165.46 134.767 166.693 133.897L167.064 133.638C167.324 133.459 167.583 133.279 167.842 133.104L168.077 132.946C168.54 132.632 169.009 132.325 169.483 132.027L169.718 131.879L169.951 131.734C170.184 131.589 170.416 131.447 170.647 131.309L170.878 131.17L171.34 130.902L171.794 130.642L171.885 130.591L172.244 130.394C172.394 130.313 172.543 130.235 172.691 130.158L172.913 130.044L173.128 129.936C173.204 129.9 173.278 129.863 173.351 129.827C173.967 129.524 174.597 129.251 175.24 129.01L175.636 128.871C175.755 128.832 175.871 128.794 175.982 128.76L176.021 128.748C176.081 128.729 176.141 128.712 176.2 128.696L176.217 128.691C176.341 128.656 176.463 128.625 176.584 128.596H176.593C176.936 128.514 177.283 128.455 177.634 128.419C177.795 128.402 177.957 128.394 178.119 128.395H178.2C178.308 128.395 178.413 128.402 178.516 128.412C178.563 128.412 178.611 128.422 178.657 128.428H178.677C178.723 128.433 178.769 128.44 178.816 128.451C178.861 128.459 178.908 128.467 178.952 128.478H178.966C179.012 128.488 179.052 128.499 179.1 128.513C179.345 128.581 179.579 128.688 179.794 128.827C179.899 128.895 179.998 128.973 180.088 129.059L180.115 129.084C180.132 129.099 180.148 129.115 180.164 129.132L180.211 129.183C180.6 129.59 180.921 130.057 181.162 130.565L181.199 130.652C181.369 131.04 181.46 131.458 181.467 131.882C181.474 132.305 181.397 132.726 181.24 133.12C181.15 133.359 181.04 133.59 180.912 133.811C180.611 134.317 180.255 134.787 179.85 135.214L179.764 135.306C179.635 135.441 179.502 135.576 179.362 135.712C179.3 135.773 179.235 135.832 179.17 135.893L178.972 136.076L178.869 136.168C178.468 136.523 178.053 136.864 177.627 137.189C177.061 137.622 176.484 138.04 175.896 138.443C175.541 138.686 175.184 138.925 174.823 139.161C173.935 139.744 173.038 140.312 172.131 140.865C170.229 142.034 168.121 143.285 165.874 144.644L165.292 144.997C164.655 145.386 164.054 145.757 163.488 146.11L163.203 146.289L162.664 146.635C162.306 146.864 161.949 147.095 161.593 147.326L161.306 147.516C161.166 147.607 161.027 147.699 160.887 147.792L160.751 147.879L160.334 148.16L160.112 148.312L159.853 148.492L159.613 148.659C159.21 148.944 158.835 149.216 158.49 149.474L158.36 149.572C158.157 149.726 157.956 149.882 157.758 150.042C157.459 150.283 157.187 150.513 156.942 150.734L156.823 150.843C156.754 150.906 156.686 150.969 156.622 151.031C156.577 151.074 156.535 151.118 156.489 151.159L156.427 151.221C156.289 151.36 156.154 151.502 156.023 151.648L155.96 151.722C155.817 151.886 155.694 152.043 155.585 152.197L155.537 152.266C155.452 152.389 155.374 152.517 155.303 152.648C155.285 152.681 155.268 152.714 155.252 152.747L155.205 152.846L155.173 152.917L155.153 152.965L155.136 153.009L155.114 153.068C155.054 153.231 155.012 153.401 154.988 153.573L154.981 153.633L154.975 153.689V153.994C154.975 154.019 154.975 154.044 154.981 154.071L154.986 154.117C154.986 154.143 154.992 154.167 154.996 154.194C155 154.219 155.007 154.264 155.014 154.3V154.305C155.021 154.339 155.028 154.372 155.037 154.405C155.045 154.439 155.054 154.478 155.065 154.513C155.083 154.581 155.106 154.649 155.13 154.717C155.146 154.757 155.16 154.797 155.177 154.836C155.177 154.844 155.182 154.853 155.186 154.861L155.221 154.939L155.269 155.046C155.322 155.157 155.379 155.266 155.441 155.371L155.504 155.481L155.57 155.591C155.582 155.61 155.595 155.627 155.61 155.643L155.631 155.666L155.655 155.688L155.68 155.707C155.736 155.747 155.799 155.775 155.867 155.787C156.424 155.913 157.571 155.452 159.094 154.648C159.18 154.602 159.274 154.553 159.366 154.503L159.83 154.25L160.056 154.124C160.218 154.038 160.382 153.941 160.55 153.845L160.856 153.672C162.87 152.513 165.274 151.025 167.76 149.571C167.993 149.435 168.226 149.299 168.46 149.164L168.93 148.864C169.475 148.552 170.023 148.243 170.573 147.939C171.266 147.558 171.964 147.187 172.668 146.828L173.128 146.595C173.434 146.444 173.736 146.297 174.035 146.154C174.613 145.879 175.198 145.618 175.789 145.372L176.113 145.241L176.151 145.225C177.867 144.546 179.422 144.126 180.68 144.126C180.952 144.123 181.224 144.147 181.492 144.193H181.5C181.586 144.209 181.665 144.226 181.745 144.245H181.759C181.965 144.297 182.165 144.372 182.355 144.468C182.621 144.605 182.859 144.787 183.061 145.008C183.154 145.11 183.236 145.221 183.309 145.339C183.444 145.547 183.55 145.772 183.627 146.008C183.658 146.1 183.685 146.19 183.713 146.285C183.916 147.017 183.896 147.793 183.655 148.513Z" fill="#FF9D00"/>
<path fill-rule="evenodd" clip-rule="evenodd" d="M172.254 96.023V95.5485C172.254 55.0993 139.474 22.3091 99.0219 22.3091C58.5707 22.3091 25.7786 55.1012 25.7786 95.5485V95.707C25.7762 95.8123 25.7762 95.9177 25.7786 96.023C25.7834 96.1805 25.7854 96.3381 25.7834 96.4956L25.7883 96.8435L25.7912 96.9682C25.7912 97.0262 25.7931 97.0832 25.795 97.1412C25.7979 97.233 25.7999 97.3257 25.7999 97.4176L25.8105 97.7935L25.826 98.2352L25.8308 98.3801L25.8501 98.8373V98.8595C25.8579 99.0383 25.8675 99.2161 25.8762 99.3939L25.8772 99.4075C25.8868 99.5891 25.8965 99.7718 25.9081 99.9544C25.9178 100.123 25.9274 100.291 25.94 100.459L25.9419 100.489C25.9506 100.633 25.9603 100.778 25.9709 100.922L25.9738 100.961L26.0057 101.378L26.0086 101.405C26.0144 101.486 26.0202 101.567 26.0279 101.646C26.0859 102.343 26.1536 103.039 26.2309 103.734L26.2348 103.778L26.2937 104.289L26.3594 104.825L26.4078 105.19L26.43 105.361C26.4812 105.755 26.5373 106.148 26.5972 106.541L26.601 106.567L26.6581 106.938C26.9345 108.706 27.2766 110.463 27.6825 112.205L27.6873 112.226L27.7182 112.357L27.8062 112.729L27.8603 112.664C29.9865 110.122 33.0365 108.721 36.449 108.721C39.184 108.721 41.9896 109.626 44.8019 111.409C46.6671 112.593 48.7295 114.692 50.8518 117.331C52.8156 114.604 55.568 112.791 58.7167 112.296C59.3168 112.201 59.9247 112.154 60.5316 112.153C67.7181 112.153 72.0467 118.389 73.6819 123.999C74.4899 125.895 78.3836 134.527 84.2557 140.366C93.1817 149.283 95.4151 158.485 90.9976 168.338H91.013C91.3136 168.371 91.6161 168.402 91.9205 168.43C92.1012 168.448 92.281 168.465 92.4627 168.481L92.5265 168.486L92.9256 168.52L93.2928 168.549C93.6427 168.576 93.9935 168.601 94.3453 168.624L94.6246 168.64L94.8459 168.654L94.9831 168.661L95.4151 168.683L95.533 168.688L95.9863 168.709L96.4908 168.728L96.8957 168.74L96.9634 168.741C97.0494 168.745 97.1354 168.748 97.2214 168.748L97.3142 168.751C97.8844 168.765 98.4536 168.771 99.0238 168.77H99.6288L100.061 168.766C100.167 168.761 100.272 168.761 100.38 168.761H100.548L100.694 168.757C100.751 168.755 100.808 168.753 100.866 168.753H101.039L101.378 168.744L101.888 168.727L102.45 168.702C102.612 168.696 102.773 168.687 102.933 168.68L103.106 168.669L103.363 168.655L103.514 168.647L103.628 168.639L104.147 168.605L104.665 168.568L105.136 168.53L105.466 168.502L105.829 168.469C106.436 168.415 107.042 168.351 107.646 168.279L108.059 168.229C103.711 158.418 105.962 149.256 114.85 140.375C120.71 134.52 124.603 125.888 125.415 123.992C127.051 118.382 131.377 112.146 138.566 112.146C139.173 112.146 139.781 112.194 140.381 112.289C143.527 112.784 146.28 114.597 148.246 117.324C150.37 114.686 152.431 112.586 154.297 111.401C157.109 109.619 159.917 108.714 162.649 108.714C165.661 108.714 168.39 109.806 170.451 111.81C170.489 111.646 170.526 111.483 170.561 111.319L170.667 110.83C170.704 110.651 170.742 110.472 170.778 110.293C170.842 109.977 170.905 109.661 170.966 109.342C171.03 109.012 171.091 108.679 171.149 108.347L171.179 108.167C171.197 108.061 171.215 107.955 171.235 107.847C171.268 107.681 171.295 107.515 171.322 107.347L171.333 107.283L171.401 106.845L171.469 106.402V106.398C171.518 106.07 171.564 105.742 171.608 105.415L171.619 105.334L171.679 104.872L171.729 104.477L171.816 103.7L171.85 103.388L171.858 103.303C171.877 103.135 171.894 102.967 171.909 102.799V102.785C171.922 102.652 171.936 102.517 171.947 102.383C172.016 101.622 172.074 100.856 172.12 100.088C172.129 99.9622 172.136 99.8356 172.143 99.709V99.7032L172.168 99.2287L172.174 99.1224C172.19 98.8015 172.203 98.4806 172.214 98.1598V98.1482L172.219 98.0225C172.224 97.9172 172.227 97.8109 172.227 97.7046L172.229 97.6621C172.233 97.5625 172.237 97.4601 172.237 97.3586L172.24 97.2716C172.243 97.1701 172.246 97.0696 172.246 96.9682L172.248 96.8821C172.251 96.7536 172.254 96.6241 172.254 96.4956V96.023ZM80.8558 169.188C86.6563 160.682 86.2446 154.298 78.287 146.344C70.3274 138.39 65.6953 126.758 65.6953 126.758C65.6953 126.758 63.9663 120.001 60.0233 120.622C56.0802 121.242 53.1877 131.338 61.444 137.519C69.6992 143.699 59.801 147.89 56.6234 142.09C53.4457 136.29 44.77 121.38 40.2722 118.528C35.7744 115.676 32.6113 117.275 33.6715 123.153C34.1982 126.07 39.0961 131.05 43.6722 135.703C48.3149 140.423 52.6262 144.807 51.7042 146.358C49.8747 149.438 43.4315 142.739 43.4315 142.739C43.4315 142.739 23.2562 124.378 18.8647 129.163C14.8154 133.573 21.0595 137.322 30.6813 143.1C31.4989 143.591 32.3417 144.097 33.2047 144.619C44.2134 151.284 45.0696 153.042 43.5069 155.563C42.9299 156.495 39.2449 154.283 34.7123 151.562C26.9857 146.922 16.7975 140.806 15.3585 146.281C14.1137 151.019 21.6094 153.922 28.4073 156.556C34.0706 158.75 39.2507 160.756 38.4882 163.479C37.6986 166.303 33.4183 163.948 28.7398 161.373C23.4872 158.483 17.7321 155.317 15.8485 158.89C12.2891 165.645 40.4056 173.598 40.6376 173.657C49.7221 176.013 72.7928 181.006 80.8558 169.188ZM118.223 169.188C112.422 160.682 112.834 154.298 120.793 146.344C128.751 138.39 133.383 126.758 133.383 126.758C133.383 126.758 135.112 120.001 139.055 120.622C142.999 121.242 145.891 131.338 137.636 137.519C129.38 143.699 139.278 147.89 142.455 142.09C145.634 136.29 154.304 121.38 158.802 118.528C163.3 115.676 166.465 117.275 165.403 123.153C164.878 126.07 159.979 131.05 155.403 135.704C150.76 140.424 146.449 144.807 147.37 146.358C149.199 149.438 155.647 142.735 155.647 142.735C155.647 142.735 175.822 124.375 180.215 129.16C184.263 133.569 178.019 137.319 168.396 143.097C167.555 143.603 166.714 144.109 165.874 144.616C154.865 151.281 154.009 153.039 155.571 155.559C156.149 156.492 159.834 154.279 164.365 151.558C172.093 146.919 182.281 140.802 183.72 146.278C184.966 151.016 177.469 153.919 170.671 156.553C165.008 158.747 159.828 160.753 160.59 163.476C161.378 166.299 165.658 163.944 170.335 161.37C175.588 158.479 181.344 155.311 183.226 158.887C186.787 165.646 158.665 173.591 158.438 173.649C149.354 176.013 126.283 181.006 118.223 169.188Z" fill="#FFD21E"/>
<path fill-rule="evenodd" clip-rule="evenodd" d="M122.808 75.6139C123.95 76.0178 124.8 77.2471 125.608 78.4175C126.7 79.9986 127.716 81.4704 129.276 80.6412C130.536 79.9707 131.647 79.0513 132.541 77.9387C133.435 76.8262 134.094 75.5436 134.478 74.1688C134.862 72.794 134.963 71.3556 134.774 69.9408C134.585 68.5259 134.111 67.1641 133.381 65.9379C132.582 64.5998 131.497 63.4552 130.203 62.5866C128.91 61.718 127.439 61.1469 125.899 60.9144C123.575 60.5645 121.202 61.0012 119.155 62.1549C117.108 63.3087 115.505 65.1133 114.602 67.2822C114.003 68.7205 113.73 70.2737 113.802 71.8302C113.875 73.3866 114.292 74.9076 115.023 76.2836C115.746 77.6434 117.35 77.0017 119.044 76.3242C120.371 75.7936 121.754 75.2408 122.808 75.6139ZM73.1573 75.6139C72.0149 76.0178 71.1654 77.2481 70.3575 78.4175C69.2654 79.9995 68.2478 81.4704 66.6889 80.6412C64.3773 79.4141 62.6051 77.3706 61.7173 74.9087C60.8295 72.4467 60.8897 69.7425 61.8861 67.3225C62.8826 64.9024 64.744 62.9398 67.1079 61.8168C69.4718 60.6937 72.1691 60.4905 74.6746 61.2468C76.67 61.8479 78.4425 63.0269 79.7682 64.6349C81.0939 66.2429 81.9133 68.2076 82.1229 70.2811C82.3316 72.3546 81.921 74.4434 80.9429 76.2836C80.219 77.6434 78.6147 77.0017 76.9215 76.3251C75.5937 75.7936 74.2126 75.2408 73.1573 75.6139ZM115.127 120.796C122.996 114.596 125.887 104.474 125.887 98.2381C125.887 93.3093 122.571 94.8604 117.262 97.4891L116.963 97.637C112.09 100.05 105.603 103.264 98.4827 103.264C91.361 103.264 84.8743 100.05 80.0025 97.636C74.5219 94.9213 71.0843 93.2184 71.0843 98.2391C71.0843 104.672 74.1595 115.234 82.6003 121.37C83.7146 119.109 85.2831 117.102 87.2078 115.475C89.1326 113.848 91.3722 112.635 93.7868 111.912C94.6295 111.661 95.4974 113.112 96.3855 114.597C97.2428 116.029 98.1193 117.494 99.0104 117.494C99.9604 117.494 100.893 116.05 101.804 114.641C102.756 113.168 103.685 111.732 104.583 112.019C109.101 113.47 112.88 116.616 115.127 120.796Z" fill="#32343D"/>
<path d="M115.125 120.795C111.026 124.025 105.578 126.19 98.4837 126.19C91.8182 126.19 86.6053 124.279 82.6003 121.369C83.7145 119.108 85.283 117.101 87.2077 115.474C89.1325 113.847 91.3722 112.634 93.7868 111.911C95.4414 111.418 97.1954 117.493 99.0104 117.493C100.953 117.493 102.825 111.457 104.583 112.019C109.1 113.47 112.878 116.616 115.125 120.795Z" fill="#FF323D"/>
<path fill-rule="evenodd" clip-rule="evenodd" d="M54.3387 84.3825C53.4025 85.0091 52.3259 85.3948 51.2047 85.5052C50.0836 85.6156 48.9525 85.4474 47.9119 85.0156C47.0799 84.6725 46.3239 84.1682 45.6875 83.5318C45.0511 82.8954 44.5468 82.1394 44.2037 81.3073C43.7725 80.2666 43.6048 79.1355 43.7155 78.0144C43.8263 76.8932 44.2121 75.8168 44.8387 74.8805C45.4017 74.0391 46.1442 73.3329 47.0129 72.8129C47.8815 72.2928 48.8547 71.9718 49.8623 71.873C50.8699 71.7741 51.8869 71.8998 52.84 72.2411C53.7932 72.5824 54.6588 73.1308 55.3746 73.8468C56.0905 74.5628 56.6387 75.4285 56.9798 76.3817C57.3209 77.335 57.4464 78.352 57.3473 79.3596C57.2483 80.3671 56.9271 81.3402 56.4068 82.2088C55.8866 83.0773 55.1803 83.8197 54.3387 84.3825ZM152.348 84.3825C151.411 85.0091 150.335 85.3948 149.213 85.5052C148.092 85.6156 146.961 85.4474 145.92 85.0156C145.088 84.6724 144.332 84.1681 143.696 83.5317C143.059 82.8953 142.555 82.1394 142.212 81.3073C141.782 80.2664 141.615 79.1356 141.725 78.0147C141.831 76.9504 142.184 75.9256 142.757 75.022C143.329 74.1184 144.104 73.3611 145.021 72.8104C146.331 72.0248 147.866 71.6998 149.382 71.8872C150.898 72.0746 152.308 72.7636 153.387 73.8445C154.346 74.8019 154.999 76.0225 155.263 77.3514C155.527 78.6804 155.391 80.0579 154.871 81.3093C154.352 82.5606 153.474 83.6301 152.348 84.3825Z" fill="#FFAD03"/>
</svg>
