<svg width="283" height="200" viewBox="0 0 283 200" fill="none" xmlns="http://www.w3.org/2000/svg">
<path d="M153.893 0.960055C152.191 2.17594 151.462 3.81738 150.367 9.71441C149.273 15.4898 149.273 15.5506 146.477 29.7765C145.139 36.2814 143.802 43.2728 143.376 45.279C143.011 47.2852 142.343 50.8112 141.856 53.1822C141.37 55.4924 140.762 58.7753 140.458 60.4775C140.093 62.1189 138.999 67.7728 137.905 72.9403C136.871 78.1078 135.655 84.248 135.23 86.619C134.561 90.5706 133.831 94.2182 130.609 110.025C129.941 113.186 129.15 117.32 128.786 119.144C128.238 122.001 124.226 142.55 123.132 148.021C122.949 148.994 122.341 152.033 121.794 154.708C121.308 157.383 120.457 161.457 120.031 163.827C115.715 185.349 115.715 185.592 117.843 188.084C119.119 189.543 120.882 190.212 126.719 191.306C134.987 192.887 138.999 193.677 154.745 196.899C163.134 198.602 170.855 200 171.828 200C175.111 200 177.117 196.656 178.394 189.057C178.576 187.902 179.001 185.713 179.366 184.194C179.67 182.674 181.008 175.986 182.345 169.299C185.932 150.696 186.054 150.149 186.965 145.589C187.452 143.218 188.121 139.692 188.425 137.686C188.789 135.68 189.336 133.066 189.64 131.911C189.944 130.755 191.039 125.284 192.072 119.752C193.106 114.219 194.2 108.748 194.443 107.593C194.747 106.438 195.173 104.249 195.416 102.729C195.659 101.21 196.085 99.021 196.328 97.8659C197.057 95.1909 200.34 78.5334 202.042 68.9887C202.59 66.3137 203.501 61.3894 204.17 58.0457C204.9 54.7021 205.872 49.7777 206.359 47.1028C206.906 44.4279 207.635 41.0234 207.939 39.5035C208.243 37.9837 209.338 32.573 210.31 27.5271C213.411 11.599 213.168 10.9911 202.407 8.68091C195.294 7.22185 188.911 5.94517 182.953 4.85088C181.129 4.48611 178.515 3.99976 177.178 3.69579C175.84 3.39182 172.436 2.66229 169.578 2.11514C166.721 1.568 163.438 0.838467 162.222 0.534496C158.879 -0.316621 155.413 -0.134239 153.893 0.960055Z" fill="black"/>
<path d="M83.6762 3.02712C82.8251 3.99982 75.2258 18.5904 66.8362 35.3696C58.3859 52.2096 39.9044 88.99 25.7394 117.138C-0.645233 169.603 -1.13159 170.697 0.570649 173.859C0.935414 174.527 9.81136 179.391 21.1191 185.045C32.062 190.516 42.397 195.744 44.0384 196.656C48.1117 198.906 53.036 199.088 54.6774 197.082C55.2854 196.352 63.2494 180.911 72.3685 162.733C81.4268 144.617 100.091 107.532 113.769 80.2964C136.749 34.7009 138.634 30.6884 138.269 28.6214C137.722 25.7033 136.628 24.609 131.886 22.2381C129.697 21.1438 119.423 15.9763 109.027 10.748C87.8102 0.0482057 86.4727 -0.316559 83.6762 3.02712Z" fill="black"/>
<path d="M223.867 3.33092C222.469 3.93886 221.739 4.78998 221.253 6.49222C220.767 8.13366 220.645 35.0047 220.767 101.331L220.949 193.92L222.651 195.562L224.293 197.264H251.711H279.129L280.892 195.258L282.655 193.313V100.237C282.655 -0.924667 282.838 4.72919 279.311 3.14854C276.88 1.99345 226.481 2.17583 223.867 3.33092Z" fill="black"/>
</svg>
