<svg width="303" height="200" viewBox="0 0 303 200" fill="none" xmlns="http://www.w3.org/2000/svg">
<path d="M67.2891 2.64089C46.41 10.0979 28.845 27.4976 16.4169 53.3485C4.81739 77.211 0.343283 96.7649 0.0118676 124.77C-0.15384 150.455 1.33753 158.575 9.4572 174.152C19.0682 192.546 34.6447 201.329 55.3582 199.837C83.8599 197.683 103.579 178.461 134.898 121.456C141.36 109.525 148.154 98.5877 149.646 96.9306C152.628 93.9478 152.794 93.9478 156.108 99.4163C157.931 102.399 163.731 112.673 168.868 122.284C198.364 176.803 220.403 198.346 247.745 199.837C268.624 200.997 283.869 192.38 293.48 174.152C301.6 158.575 303.091 150.455 302.925 124.77C302.594 95.9364 297.954 76.5481 285.526 51.36C274.755 29.8175 260.67 14.7378 243.436 6.12082C232.831 0.983772 230.677 0.486638 216.094 0.486638C201.512 0.486638 199.358 0.983772 188.753 6.12082C180.799 10.0979 173.176 15.7321 164.394 24.3491L151.634 36.9431L138.709 24.3491C120.978 7.2808 108.053 0.983772 89.6596 0.155215C79.3858 -0.341919 73.9174 0.320926 67.2891 2.64089ZM99.7678 33.9603C106.396 36.9431 127.275 57.4913 131.915 65.6112L134.898 70.4168L126.115 84.668C114.35 104.222 84.0256 148.135 77.0659 155.924C69.609 164.209 63.8093 167.027 54.3639 167.027C47.4042 167.027 45.9129 166.364 40.2788 160.564C35.1419 155.095 33.8162 152.113 31.9934 142.17C27.0222 114.33 40.2788 68.594 59.6666 46.3887C72.0946 32.3032 86.5112 27.829 99.7678 33.9603ZM228.854 34.6232C254.373 47.0515 277.406 105.713 270.944 142.17C269.121 152.113 267.795 155.095 262.658 160.564C257.024 166.364 255.533 167.027 248.573 167.027C239.128 167.027 233.328 164.209 225.871 155.924C218.912 148.135 188.587 104.222 176.822 84.668L168.039 70.4168L171.022 65.6112C175.496 57.8228 196.375 36.9431 202.838 33.9603C210.792 30.149 220.237 30.4804 228.854 34.6232Z" fill="black"/>
</svg>
