<svg width="259" height="218" viewBox="0 0 259 218" fill="none" xmlns="http://www.w3.org/2000/svg">
<path d="M9 209C16.0859 209 26.7148 194.12 39.1151 191.994C46.2011 191.994 51.5155 206.875 69.2303 209C81.6306 209 86.9451 194.12 99.3454 194.12C111.746 194.12 117.06 209 129.461 209C141.861 209 147.175 194.12 159.576 194.12C171.976 194.12 177.291 209 189.691 209C202.091 209 207.406 194.12 219.806 194.12C232.206 194.12 237.521 209 249.921 209" stroke="black" stroke-width="18" stroke-linecap="round" stroke-linejoin="round"/>
<path d="M33.2337 194.191L25.1204 178.673L234.155 165.209C217.716 180.161 196.6 192.278 175.236 202.198" stroke="black" stroke-width="18" stroke-linecap="round" stroke-linejoin="round"/>
<path d="M108.344 34.1201C143.916 44.997 193.659 97.5391 210.594 154.014C201.312 150.365 194.368 146.644 181.329 149.975C168.717 104.094 146.148 60.2671 108.344 34.1201Z" stroke="black" stroke-width="18" stroke-linecap="round" stroke-linejoin="round"/>
<path d="M42.1975 9.00049C87.7599 28.4868 150.258 82.7295 161.737 154.97C109.195 133.783 69.1948 145.086 41.3472 162.269C83.8272 108.274 64.7661 46.8747 42.1975 9.00049Z" stroke="black" stroke-width="18" stroke-linecap="round" stroke-linejoin="round"/>
</svg>
