<svg width="283" height="200" viewBox="0 0 283 200" fill="none" xmlns="http://www.w3.org/2000/svg">
<g clip-path="url(#clip0_36_228)">
<path d="M0 179.221V199.292L60.2083 199.244L120.393 199.173L120.464 179.15L120.511 159.15H60.2554H0V179.221Z" fill="black"/>
<path d="M160.532 159.315C160.437 159.386 160.367 168.43 160.367 179.386V199.292H220.74H281.113V179.221V159.15H220.905C187.771 159.15 160.603 159.221 160.532 159.315Z" fill="black"/>
<path d="M40.0917 139.315V159.15H60.2554H80.4192V139.315V119.48H60.2554H40.0917V139.315Z" fill="black"/>
<path d="M120.322 139.363L120.393 159.268L140.51 159.339L160.603 159.386V139.433V119.481H140.439H120.275L120.322 139.363Z" fill="black"/>
<path d="M200.458 139.315V159.15H220.74H241.022V139.315V119.48H220.74H200.458V139.315Z" fill="black"/>
<path d="M40.0917 99.4097V119.244L60.3262 119.292C96.6209 119.41 169.871 119.386 205.835 119.292L241.022 119.174V99.3625V79.575H140.557H40.0917V99.4097Z" fill="black"/>
<path d="M200.506 19.7641L200.458 39.6696H180.413H160.367V59.6224V79.5752H200.694H241.022V59.6224V39.6696H220.858H200.694L200.623 19.7641L200.576 -0.117838L200.506 19.7641Z" fill="black"/>
<path d="M40.0917 59.6224V79.5752H80.3013H120.511V59.6224V39.6696H80.3013H40.0917V59.6224Z" fill="black"/>
<path d="M40.0917 19.8347V39.6694H60.2554H80.4192V19.8347V1.24276e-05H60.2554H40.0917V19.8347Z" fill="black"/>
<path d="M200.694 19.8347V39.6694H220.858H241.022V19.8347V1.24276e-05H220.858H200.694V19.8347Z" fill="black"/>
</g>
<defs>
<clipPath id="clip0_36_228">
<rect width="283" height="200" fill="white"/>
</clipPath>
</defs>
</svg>
