<svg width="172" height="200" viewBox="0 0 172 200" fill="none" xmlns="http://www.w3.org/2000/svg">
<path d="M80.1927 26.1111L80.0817 52.2222L51.9699 26.2963C36.5084 12.037 23.7471 0.370369 23.5991 0.370369C23.4142 0.370369 23.3032 13.7037 23.3032 30V59.6296L11.7626 59.7037L0.184946 59.8148L0.0739785 102.852L0 145.926H11.6516H23.3032V172.778C23.3032 187.556 23.4512 199.63 23.5991 199.63C23.7471 199.63 36.5084 188.481 51.9699 174.852L80.0817 150.074L80.1927 175.037L80.2667 200H85.815H91.3634L91.4374 174.593L91.5484 149.222L120.03 174.259L148.512 199.296L148.623 172.63L148.697 145.926H160.348H172L171.926 102.852L171.815 59.8148L160.163 59.7407L148.512 59.6667L148.327 30L148.142 0.333332L119.845 26.4444L91.5484 52.5185L91.4374 26.2593L91.3634 -1.49012e-06H85.815H80.2667L80.1927 26.1111ZM53.3385 42.5926L71.6112 59.4444L53.3015 59.6296C43.2034 59.7407 34.8439 59.7778 34.6959 59.7037C34.252 59.5185 34.326 25.4815 34.7329 25.6296C34.9178 25.6667 43.3144 33.3333 53.3385 42.5926ZM137.526 42.5926L137.415 59.6296L118.809 59.7407C108.6 59.7778 100.278 59.7037 100.315 59.5556C100.5 59.1481 137.008 25.5556 137.341 25.5556C137.489 25.5556 137.563 33.2222 137.526 42.5926ZM70.3905 72.1852C69.5398 72.9259 58.628 82.8889 46.0886 94.2593L23.3032 114.963V125.074V135.185H17.2H11.0968V102.963V70.7407H41.5389L71.9441 70.7778L70.3905 72.1852ZM160.903 102.963V135.185H154.8H148.697V124.852V114.481L125.32 93.2593C112.447 81.5926 101.572 71.7407 101.166 71.4074C100.463 70.8148 102.053 70.7778 130.683 70.7407H160.903V102.963ZM116.812 100.889L137.6 119.778V147.333C137.6 173.778 137.563 174.852 136.934 174.37C136.564 174.111 126.244 165.074 114.001 154.296L91.7333 134.704V106.37V78.0741L93.8787 80.037C95.0254 81.0741 105.345 90.4815 116.812 100.889ZM80.2297 106.926V135.37L57.6662 155.185C45.2748 166.074 34.9918 175.037 34.7699 175.111C34.511 175.222 34.4 166.185 34.4 147.593V119.926L36.4714 118C48.6778 106.778 79.7858 78.5556 80.0077 78.5556C80.1557 78.5185 80.2667 91.2963 80.2297 106.926Z" fill="black"/>
</svg>
