<svg width="194" height="200" viewBox="0 0 194 200" fill="none" xmlns="http://www.w3.org/2000/svg">
<path d="M76.413 1.01079C61.5755 7.77976 51.4675 45.0555 54.0641 84.093C54.5277 90.9547 55.1769 97.26 55.4551 98.1873C55.9187 99.7636 54.9914 99.8563 42.1013 99.8563H28.2839L14.5593 147.795C6.95507 174.222 0.64914 196.755 0.370937 197.867L0 200H40.4321H80.8642V171.997C80.8642 152.061 81.1424 144.272 81.8843 145.014C82.4407 145.57 89.5813 157.995 97.8346 172.739L112.858 199.536L153.475 199.815C180.09 199.907 194 199.722 194 199.073C194 198.609 187.138 185.998 178.792 171.07L163.49 143.901L126.582 143.437C106.273 143.159 91.1577 142.881 93.0124 142.696C99.6893 142.325 111.281 138.708 120.276 134.258C146.149 121.461 161.543 98.0945 161.543 71.575C161.543 34.0211 129.272 2.8653 87.5411 0.176257C81.5134 -0.194645 78.7314 -0.00919378 76.413 1.01079ZM83.739 13.6215C88.1902 16.0323 92.827 30.5903 94.8671 48.8572C96.5363 63.4151 95.4235 95.8691 92.9197 107.553C90.6941 118.216 88.8394 123.316 85.7792 127.396C79.7514 135.556 73.26 126.654 69.1797 104.956C67.696 97.26 67.4178 91.3256 67.4178 70.6477C67.5105 48.2081 67.696 44.5918 69.6434 35.8756C71.9618 24.934 75.5784 16.0323 78.4532 13.9924C80.6788 12.416 81.3279 12.416 83.739 13.6215Z" fill="black"/>
</svg>
