<svg width="305" height="200" viewBox="0 0 305 200" fill="none" xmlns="http://www.w3.org/2000/svg">
<path d="M49.2857 10.7141C20.7143 22.8569 12.1429 39.2855 5 96.4284L0 142.857H26.4286H53.5714L57.8571 103.571C61.4286 75.7141 67.1429 61.4284 76.4286 57.1426C83.5714 52.8569 124.286 49.9998 167.857 49.9998H247.143V24.9998V-0.000212669H160C101.429 0.714073 64.2857 3.57122 49.2857 10.7141Z" fill="black"/>
<path d="M242.857 101.429L236.428 146.429L147.143 150L57.857 153.571L55.7141 177.143L53.5713 200H147.143C278.571 200 288.571 192.857 300 94.2857L305 57.1429H277.143H250L242.857 101.429Z" fill="black"/>
</svg>
