<?xml version="1.0" encoding="UTF-8" standalone="no"?><!DOCTYPE svg PUBLIC "-//W3C//DTD SVG 1.1//EN" "http://www.w3.org/Graphics/SVG/1.1/DTD/svg11.dtd"><svg width="100%" height="100%" viewBox="0 0 100 100" version="1.1" xmlns="http://www.w3.org/2000/svg" xmlns:xlink="http://www.w3.org/1999/xlink" xml:space="preserve" xmlns:serif="http://www.serif.com/" style="fill-rule:evenodd;clip-rule:evenodd;stroke-linejoin:round;stroke-miterlimit:2;"><rect x="0" y="0" width="100" height="100"/><path id="path3428" d="M74.376,27.247c-6.167,3.612 -8.056,3.895 -14.706,7.904c3.87,-4.218 5.218,-5.999 7.642,-9.539c-6.173,0.325 -15.114,1.064 -21.525,2.478c5.576,-2.958 16.609,-6.282 22.429,-7.058c-1.35,-1.856 -12.269,-7.79 -14.993,-8.91c8.643,0.672 19.217,3.876 24.331,7.036c2.06,-0.626 4.132,-0.673 7.863,-1.002c-0.952,1.643 -0.963,2.594 -4.657,5.026c1.018,2.726 -1.408,17.728 -3.412,21.722c-0.088,-6.286 -0.649,-14.224 -2.973,-17.656" style="fill:#fff;fill-rule:nonzero;"/><path id="path3430" d="M29.383,81.063c-3.552,-1.306 -6.102,-2.833 -8.894,-5.45c0.84,-2.301 1.796,-4.124 3.365,-6.418c-2.89,0.41 -4.978,0.72 -7.457,1.21c-2.025,-3.542 -2.921,-6.923 -3.956,-11.64c-0.555,4.994 -0.755,8.566 -0.041,12.558c-2.266,0.619 -3.88,1.178 -5.743,2.009c2.605,1.616 4.722,2.862 7.664,4.21c1.552,3.362 3.18,5.656 5.81,8.231c-0.629,-2.197 -0.77,-3.962 -0.546,-6.264c3.285,0.957 6.072,1.439 9.799,1.553" style="fill:#fff;fill-rule:nonzero;"/><path id="path3432" d="M38.576,31.155c-1.119,1.43 -2.388,4.09 -2.726,5.334c9.087,1.253 16.412,5.909 16.416,5.911c-8.001,-1.413 -12.174,-1.237 -15.142,-0.975c-2.961,0.291 -3.559,0.647 -3.559,0.647c-2.14,4.66 -3.421,12.761 -3.422,12.766c-1.449,-3.488 -3.547,-10.477 -3.548,-10.481c-4.017,2.159 -13.245,10.838 -13.249,10.841c5.079,-10.169 10.22,-14.829 10.223,-14.83c-1.77,-1.771 -6.414,-2.66 -9.807,-2.812c1.768,-0.727 6.298,-1.578 9.767,-1.722c3.472,-0.11 5.574,0.101 5.575,0.101c3.121,-2.457 7.822,-4.527 9.471,-4.781" style="fill:#fff;fill-rule:nonzero;"/><path id="path3434" d="M48.216,74.772c-1.619,2.167 -2.983,3.889 -4.779,5.885c-3.06,0.831 -5.497,1.15 -8.477,1.161c1.826,0.942 3.346,1.524 5.362,2.006c-1.895,1.736 -3.385,2.879 -5.232,4.054c3.101,-0.748 7.37,-2.171 10.406,-3.949c2.011,0.134 1.969,0.46 4.007,0.033c-0.262,-0.946 -0.462,-1.81 -0.69,-3.025c2.876,-2.227 4.967,-4.233 7.33,-6.641c-2.534,1.772 -4.73,3.105 -7.635,4.484c-0.141,-1.355 -0.227,-2.493 -0.292,-4.009" style="fill:#fff;fill-rule:nonzero;"/><path id="path3436" d="M75.387,55.019c-0.064,1.268 -0.151,4.504 -0.151,7.39c0,2.022 0.058,3.914 0.118,4.959l-2.635,0c-0.328,-0.444 -0.54,-0.691 -1.339,-1.619l-0.226,-0.262l-5.125,-6.006c-0.566,-0.673 -0.737,-0.989 -0.854,-1.337l-0.222,-0.658l0,0.703c0,3.008 0.002,6.116 0.212,9.178l-3.417,0c0.089,-1.925 0.089,-4.374 0.089,-6.544c0,-1.195 -0.019,-4.1 -0.178,-5.805l4.078,0c1.291,1.3 2.327,2.593 3.328,3.844l1.665,2.033c1.053,1.241 1.248,1.499 1.485,1.968l0.264,0.521l-0.049,-0.581c-0.131,-1.566 -0.196,-3.181 -0.259,-4.743c0,0.001 -0.131,-2.82 -0.141,-3.042l3.355,0" style="fill:#fff;fill-rule:nonzero;"/><path id="path3438" d="M83.513,56.359l-0.094,0.004l-0.012,0.092c-0.065,0.422 -0.127,1.7 -0.127,1.955c0,0.244 0.061,1.831 0.126,2.322l0.013,0.095l0.42,0.017l0.867,0.023c3.141,0 4.802,-0.801 4.802,-2.316c0,-1.512 -1.56,-2.245 -4.771,-2.245l-1.225,0.053l0,0Zm2.726,-1.34c3.24,0.055 7.106,0.712 7.106,3.532c0,2.472 -2.764,3.673 -8.45,3.673l-0.615,-0.019l-0.925,-0.038l-0.011,0.104c-0.064,0.483 -0.064,1.759 -0.064,2.305c0,0.745 0.029,1.22 0.148,2.792l-3.942,0c0.137,-1.168 0.175,-2.348 0.175,-3.516c0,-0.537 -0.007,-1.072 -0.014,-1.601l-0.014,-1.604l0.02,-1.632c0.01,-0.542 0.021,-1.091 0.021,-1.643c0,-0.785 -0.025,-1.574 -0.096,-2.354l6.661,0" style="fill:#fff;fill-rule:nonzero;"/><path id="path3452" d="M54.115,60.706l-0.64,-0.13l0.647,-0.094c2.275,-0.329 3.746,-1.377 3.746,-2.67c0,-1.989 -2.928,-2.747 -5.667,-2.792l-7.878,0c0.064,0.984 0.148,5.605 0.148,6.932c0,0 -0.088,5.208 -0.092,5.417l7.041,0c3.511,0 7.262,-0.877 7.262,-3.339c0,-1.608 -1.493,-2.695 -4.566,-3.323Zm-5.998,-4.435l1.614,0c3.018,0 4.365,0.578 4.365,1.876c0,1.192 -1.281,1.823 -3.911,1.928l-0.685,1.446l0.824,0c1.713,-0.037 3.197,0.392 3.969,1.147c0.367,0.36 0.554,0.771 0.554,1.221c0,1.478 -1.563,2.228 -4.646,2.228c-0.55,0 -1.473,0 -1.977,-0.036l-0.106,-0.008l0,-9.802" style="fill:#fff;fill-rule:nonzero;"/></svg>