<?xml version="1.0" encoding="UTF-8" standalone="no"?><!DOCTYPE svg PUBLIC "-//W3C//DTD SVG 1.1//EN" "http://www.w3.org/Graphics/SVG/1.1/DTD/svg11.dtd"><svg width="100%" height="100%" viewBox="0 0 100 100" version="1.1" xmlns="http://www.w3.org/2000/svg" xmlns:xlink="http://www.w3.org/1999/xlink" xml:space="preserve" xmlns:serif="http://www.serif.com/" style="fill-rule:evenodd;clip-rule:evenodd;stroke-linejoin:round;stroke-miterlimit:2;"><rect x="0" y="0" width="100" height="100"/><path id="path832" d="M21.69,22.184l17.843,8.125l27.338,0l2.262,-3.919c1.37,-2.358 -0.287,-5.194 -2.772,-5.194l-44.48,0c-0.605,0 -0.733,0.733 -0.191,0.988m1.243,35.304l23.323,-0.446c2.836,-0.064 6.149,-1.689 7.679,-4.301l3.505,-6.086l-35.686,9.654c0.733,0.319 1.051,0.733 1.179,1.179m61.112,-23.706l-44.512,0l-36.196,22.909c-0.446,0.35 -0.064,1.02 0.446,0.892l80.549,-21.826c0.382,-0.096 0.733,-0.446 0.733,-0.988c0,-0.605 -0.51,-0.988 -1.02,-0.988" style="fill:#fff;fill-rule:nonzero;"/><path id="path834" d="M40.521,58.507l6.309,7.01l1.944,0l0,-9.973l-2.039,0l0,6.85l-6.181,-6.85l-2.039,0l0,9.973l2.039,0l0,-7.01l-0.032,0Zm25.522,-6.309l5.958,0l1.179,-1.912l-5.735,0l0,-8.029l-2.135,0l0,9.24c0,0.414 0.255,0.701 0.733,0.701m-48.559,16.569c-1.211,0 -2.549,0.032 -3.6,0.064l0,9.973l2.103,0l0,-2.963l1.625,0c3.186,0 5.48,-0.797 5.48,-3.6c0.032,-2.485 -1.944,-3.473 -5.608,-3.473m3.027,4.556c-0.605,0.605 -1.784,0.605 -3.027,0.605l-1.498,0l0,-3.186l1.498,0c1.625,0 2.517,0.064 3.091,0.637c0.191,0.191 0.35,0.574 0.35,0.892c0,0.446 -0.127,0.765 -0.414,1.051m49.387,-7.615c2.899,0 4.907,-1.498 4.907,-4.524l0,-5.64l-2.103,0l0,5.48c0,1.784 -0.892,2.804 -2.804,2.804c-1.88,0 -2.804,-1.02 -2.804,-2.804l0,-5.48l-2.103,0l0,5.64c0,2.995 2.007,4.524 4.907,4.524m-13.064,-0.191c1.37,0 2.613,-0.414 3.473,-0.988l0.382,0.51c0.255,0.382 0.765,0.478 1.306,0.478l1.721,0l-1.944,-2.262c0.733,-0.797 1.083,-1.816 1.083,-2.804c0,-2.836 -2.326,-5.066 -6.022,-5.066c-3.664,0 -6.022,2.262 -6.022,5.066c0,2.804 2.358,5.066 6.022,5.066m0,-8.284c2.199,0 3.855,1.306 3.855,3.186c0,1.88 -1.657,3.186 -3.855,3.186c-2.167,0 -3.824,-1.306 -3.824,-3.186c0,-1.88 1.625,-3.186 3.824,-3.186m-29.218,6.468l6.118,0l0.605,1.179c0.287,0.605 0.574,0.637 1.338,0.637l1.243,0l-5.225,-10.069l-2.039,0l-5.225,10.069l2.262,0l0.924,-1.816Zm3.059,-6.086l2.103,4.174l-4.206,0l2.103,-4.174Zm-0.701,11.024c-3.76,0 -6.022,2.326 -6.022,5.194c0,2.868 2.262,5.194 6.022,5.194c3.76,0 6.022,-2.326 6.022,-5.194c0,-2.868 -2.23,-5.194 -6.022,-5.194m0,8.475c-2.262,0 -3.855,-1.306 -3.855,-3.282c0,-2.007 1.593,-3.282 3.855,-3.282c2.23,0 3.824,1.306 3.824,3.282c0,1.975 -1.593,3.282 -3.824,3.282m-8.444,-16.728c1.179,-0.35 1.88,-1.115 1.88,-2.294c0,-1.816 -1.561,-2.613 -4.588,-2.613c-1.466,0 -3.632,0 -4.971,0.064l0,9.973c1.593,0.064 3.346,0.064 4.811,0.064c2.963,0 5.034,-0.669 5.034,-2.836c0.032,-1.179 -0.86,-2.071 -2.167,-2.358m-5.576,-3.123l3.218,0c1.275,0 2.071,0.287 2.071,1.083c0,1.02 -0.828,1.211 -2.39,1.211l-2.899,0l0,-2.294Zm3.059,6.5l-3.027,0l0,-2.39l3.441,0c1.179,0 2.071,0.255 2.071,1.179c0.032,1.02 -1.02,1.211 -2.485,1.211m51.331,5.066l-2.135,0l0,9.24c0,0.414 0.255,0.701 0.733,0.701l7.137,0l0,-1.912l-5.735,0l0,-8.029Zm6.946,9.272c0,0.414 0.255,0.701 0.733,0.701l8.125,0l0,-1.912l-6.723,0l0,-2.199l6.022,0l0,-1.912l-6.022,0l0,-2.007l6.723,0l0,-1.912l-8.826,0l0,9.24l-0.032,0Zm0,-13.319c0,0.414 0.255,0.701 0.733,0.701l8.125,0l0,-1.912l-6.723,0l0,-2.199l6.022,0l0,-1.912l-6.022,0l0,-2.007l6.723,0l0,-1.912l-8.826,0l0,9.24l-0.032,0Zm6.596,-13.223c0.287,0.605 0.574,0.637 1.338,0.637l1.243,0l-5.225,-10.069l-2.039,0l-5.225,10.069l2.262,0l0.924,-1.816l6.118,0l0.605,1.179Zm-5.767,-3.027l2.103,-4.174l2.103,4.174l-4.206,0Zm-38.554,22.973c0,-0.733 0.956,-1.083 2.262,-1.083c1.02,0 2.422,0.51 2.74,0.733l1.083,-1.593c-0.637,-0.414 -2.39,-0.892 -3.76,-0.892c-2.549,0 -4.493,1.338 -4.493,3.186c0,3.473 6.755,2.262 6.755,4.27c0,0.828 -1.211,1.115 -2.23,1.115c-1.402,0 -2.995,-0.478 -3.983,-1.243l-1.083,1.593c1.338,0.924 3.377,1.434 4.875,1.434c2.517,0 4.62,-1.179 4.62,-3.123c-0.032,-3.569 -6.787,-2.549 -6.787,-4.397m16.823,-2.676l-9.718,0l0,1.912l3.792,0l0,8.029l2.103,0l0,-8.029l3.824,0l0,-1.912Zm3.537,-0.096l-5.225,10.069l2.262,0l0.924,-1.816l6.118,0l0.605,1.179c0.287,0.605 0.574,0.637 1.338,0.637l1.243,0l-5.225,-10.069l-2.039,0Zm-1.083,6.373l2.103,-4.174l2.103,4.174l-4.206,0Z" style="fill:#dbdbdc;fill-rule:nonzero;"/></svg>