<svg width="402" height="200" viewBox="0 0 402 200" fill="none" xmlns="http://www.w3.org/2000/svg">
<path d="M352.228 0.835181C341.12 2.98517 331.266 9.97265 325.532 20.1851L320.695 28.9643L286.653 29.6809C255.837 30.2184 251.895 30.5767 245.266 34.1601C233.799 40.2517 225.379 51.1808 223.049 63.185C218.749 85.2224 213.374 90.239 194.92 90.239H183.991L181.841 83.7891C176.645 68.2016 155.504 56.0183 138.304 58.885C123.075 61.5725 107.846 73.7558 105.337 85.2224C104.441 90.0599 104.083 90.239 92.4374 90.239L80.6124 90.0599L76.1333 80.7432C62.5166 52.2558 21.3084 51.1808 5.00434 78.9516C-3.7748 94.1807 -0.728979 115.681 11.9918 127.147C24.1751 138.435 44.9584 141.301 59.2916 133.776C67.175 129.656 75.4166 120.876 78.1041 114.068C79.5374 110.306 80.7916 109.947 92.079 109.947C103.187 109.947 104.621 110.306 105.696 113.71C109.1 124.46 125.225 135.926 139.379 137.897C154.966 140.047 173.241 130.731 179.333 117.293L182.737 110.126L194.025 109.947C212.479 109.947 219.287 115.501 222.154 133.239C225.916 155.993 240.787 168.714 266.228 170.326L280.024 171.401L283.249 178.389C292.208 198.097 318.903 205.98 339.328 195.051C358.678 184.48 365.666 161.905 355.632 142.197C343.091 117.831 308.512 113.531 289.52 134.135C285.578 138.435 281.816 143.989 281.099 146.497C280.024 150.797 279.308 151.156 268.916 151.156C261.212 151.156 256.374 150.081 252.253 147.572C245.266 143.272 243.654 140.406 241.145 127.326C238.995 115.86 236.845 111.022 231.47 104.931C228.245 101.527 228.066 100.272 229.858 97.764C236.666 88.2682 239.354 83.2516 240.249 77.6974C242.579 63.5433 245.445 57.2725 251.537 53.1517C257.27 49.21 259.241 49.0309 289.162 49.0309H320.874L323.024 55.3017C325.891 63.185 338.97 74.6516 348.107 77.3391C375.699 85.5807 401.32 67.1266 401.14 38.8184C400.961 24.1268 394.511 13.0185 381.611 6.031C371.22 0.297682 363.157 -1.13565 352.228 0.835181ZM373.549 23.7684C376.057 25.5601 379.103 30.2184 380.536 33.9809C382.686 40.2517 382.686 41.8642 379.999 47.4184C372.295 63.5433 348.645 63.9016 341.837 47.7767C333.774 28.0684 356.17 11.0476 373.549 23.7684ZM55.35 84.6849C60.0083 89.3432 60.9041 91.6724 60.9041 98.4807C60.9041 105.647 60.0083 107.439 53.9167 112.993C47.6459 118.726 46.3917 119.264 39.0459 118.368C29.0126 117.293 20.9501 109.947 19.5168 100.989C18.4418 93.8224 23.9959 83.7891 31.3417 79.8474C38.3292 76.2641 48.9 78.4141 55.35 84.6849ZM155.145 81.8182C170.733 92.2099 165.179 115.86 146.546 118.368C123.433 121.414 113.4 90.7765 134.183 80.5641C142.066 76.6224 148.158 76.9808 155.145 81.8182ZM333.416 146.318C338.791 151.156 340.045 153.664 340.224 159.397C340.403 168.535 335.745 175.701 327.503 179.105C304.928 188.601 287.191 156.53 307.974 143.81C316.753 138.435 325.891 139.331 333.416 146.318Z" fill="white"/>
</svg>
